<svg width="12" height="12" viewBox="0 0 12 12" fill="none" xmlns="http://www.w3.org/2000/svg">
<path d="M4 6.17969C4.00391 6.04688 4.05078 5.93359 4.15625 5.83203L7.20312 2.85156C7.28516 2.76562 7.39453 2.72266 7.51953 2.72266C7.77344 2.72266 7.97266 2.91797 7.97266 3.17188C7.97266 3.29688 7.92188 3.41016 7.83594 3.5L5.08984 6.17969L7.83594 8.85938C7.92188 8.94531 7.97266 9.05859 7.97266 9.18359C7.97266 9.44141 7.77344 9.63672 7.51953 9.63672C7.39453 9.63672 7.28516 9.59375 7.20312 9.50781L4.15625 6.52734C4.05078 6.42578 4 6.3125 4 6.17969Z" fill="#858585"/>
</svg>
