<svg width="12" height="12" viewBox="0 0 12 12" fill="none" xmlns="http://www.w3.org/2000/svg">
<path d="M4.15124 8.6813C4.02594 8.58799 3.99928 8.43336 4.07126 8.22275L4.62046 6.5938L3.2208 5.58871C3.03951 5.46074 2.96486 5.31944 3.01552 5.17015C3.06617 5.02351 3.2048 4.95153 3.42608 4.9542L5.143 4.96486L5.66555 3.32792C5.73486 3.11464 5.84417 3 5.9988 3C6.15609 3 6.2654 3.11464 6.33205 3.32792L6.85459 4.96486L8.57151 4.9542C8.79279 4.95153 8.93409 5.02351 8.98475 5.17015C9.0354 5.31944 8.95809 5.46074 8.77946 5.58871L7.3798 6.5938L7.92634 8.22275C7.99832 8.43336 7.97166 8.58799 7.84902 8.6813C7.72372 8.77728 7.56642 8.74529 7.38513 8.61465L5.9988 7.59623L4.61247 8.61465C4.43118 8.74529 4.27655 8.77728 4.15124 8.6813Z" fill="black"/>
</svg>
