<svg width="16" height="16" viewBox="0 0 16 16" fill="none" xmlns="http://www.w3.org/2000/svg">
<path d="M4.24414 7.76953C4.25 7.57031 4.32031 7.40039 4.47852 7.24805L9.04883 2.77734C9.17188 2.64844 9.33594 2.58398 9.52344 2.58398C9.9043 2.58398 10.2031 2.87695 10.2031 3.25781C10.2031 3.44531 10.127 3.61523 9.99805 3.75L5.87891 7.76953L9.99805 11.7891C10.127 11.918 10.2031 12.0879 10.2031 12.2754C10.2031 12.6621 9.9043 12.9551 9.52344 12.9551C9.33594 12.9551 9.17188 12.8906 9.04883 12.7617L4.47852 8.29102C4.32031 8.13867 4.24414 7.96875 4.24414 7.76953Z" fill="#858585"/>
</svg>
