<svg width="16" height="16" viewBox="0 0 16 16" fill="none" xmlns="http://www.w3.org/2000/svg">
<path d="M5.09375 12.6387C4.53711 12.6387 4.25 12.3516 4.25586 11.8008V3.74414C4.25586 3.19336 4.54297 2.90625 5.09375 2.90625H6.46484C7.02148 2.91211 7.30273 3.17578 7.30273 3.74414V11.8008C7.30273 12.3516 7.02148 12.6387 6.46484 12.6387H5.09375ZM9.52929 12.6387C8.97265 12.6387 8.6914 12.3516 8.6914 11.8008V3.74414C8.6914 3.19336 8.97265 2.90625 9.52929 2.90625H10.9004C11.4512 2.90625 11.7383 3.17578 11.7383 3.74414V11.8008C11.7383 12.3516 11.4512 12.6387 10.9004 12.6387H9.52929Z" fill="#858585"/>
</svg>
